<?xml version="1.0" encoding="UTF-8" standalone="no"?>
<!-- Created with Inkscape (http://www.inkscape.org/) -->

<svg
   width="44mm"
   height="44mm"
   viewBox="0 0 166.29922 166.29922"
   version="1.1"
   id="svg1"
   xml:space="preserve"
   inkscape:version="1.4.4 (dcaf3e7, 2026-05-05)"
   sodipodi:docname="DialLabelWithBleed.svg"
   inkscape:export-filename="C:\Users\Alasd\Downloads\InkscapeSpacing4.pdf"
   inkscape:export-xdpi="300"
   inkscape:export-ydpi="300"
   xmlns:inkscape="http://www.inkscape.org/namespaces/inkscape"
   xmlns:sodipodi="http://sodipodi.sourceforge.net/DTD/sodipodi-0.dtd"
   xmlns:xlink="http://www.w3.org/1999/xlink"
   xmlns="http://www.w3.org/2000/svg"
   xmlns:svg="http://www.w3.org/2000/svg"><sodipodi:namedview
     id="namedview1"
     pagecolor="#ffffff"
     bordercolor="#000000"
     borderopacity="0.25"
     inkscape:showpageshadow="2"
     inkscape:pageopacity="0.0"
     inkscape:pagecheckerboard="0"
     inkscape:deskcolor="#d1d1d1"
     inkscape:document-units="mm"
     showguides="true"
     inkscape:zoom="2.24"
     inkscape:cx="68.973214"
     inkscape:cy="80.133929"
     inkscape:window-width="2560"
     inkscape:window-height="1369"
     inkscape:window-x="-8"
     inkscape:window-y="-8"
     inkscape:window-maximized="1"
     inkscape:current-layer="layer1"><inkscape:page
       x="0"
       y="0"
       width="166.29922"
       height="166.29922"
       id="page272"
       margin="0"
       bleed="0" /><sodipodi:guide
       position="-74.107147,231.4778"
       orientation="-1,0"
       id="guide14"
       inkscape:locked="false"
       inkscape:label=""
       inkscape:color="rgb(0,134,229)" /><sodipodi:guide
       position="206.69644,225.67423"
       orientation="-1,0"
       id="guide15"
       inkscape:locked="false"
       inkscape:label=""
       inkscape:color="rgb(0,134,229)" /></sodipodi:namedview><defs
     id="defs1"><filter
       style="color-interpolation-filters:sRGB"
       inkscape:label="Duochrome"
       id="filter214"
       x="0"
       y="0"
       width="1"
       height="1"><feColorMatrix
         values="1 0 0 0 0 0 1 0 0 0 0 0 1 0 0 -0.21 -0.72 -0.07 2 0 "
         result="fbSourceGraphic"
         id="feColorMatrix214" /><feColorMatrix
         result="fbSourceGraphicAlpha"
         in="fbSourceGraphic"
         values="0 0 0 -1 0 0 0 0 -1 0 0 0 0 -1 0 0 0 0 1 0"
         id="feColorMatrix215" /><feColorMatrix
         id="feColorMatrix216"
         values="1 0 0 0 0 0 1 0 0 0 0 0 1 0 0 -0.21 -0.72 -0.07 2 0 "
         result="fbSourceGraphic"
         in="fbSourceGraphic" /><feColorMatrix
         result="fbSourceGraphicAlpha"
         in="fbSourceGraphic"
         values="0 0 0 -1 0 0 0 0 -1 0 0 0 0 -1 0 0 0 0 1 0"
         id="feColorMatrix217" /><feColorMatrix
         id="feColorMatrix218"
         values="1 0 0 0 0 0 1 0 0 0 0 0 1 0 0 -0.21 -0.72 -0.07 2 0 "
         result="fbSourceGraphic"
         in="fbSourceGraphic" /><feColorMatrix
         result="fbSourceGraphicAlpha"
         in="fbSourceGraphic"
         values="0 0 0 -1 0 0 0 0 -1 0 0 0 0 -1 0 0 0 0 1 0"
         id="feColorMatrix219" /><feColorMatrix
         id="feColorMatrix220"
         values="1 0 0 0 0 0 1 0 0 0 0 0 1 0 0 -0.21 -0.72 -0.07 2 0 "
         result="fbSourceGraphic"
         in="fbSourceGraphic" /><feColorMatrix
         result="fbSourceGraphicAlpha"
         in="fbSourceGraphic"
         values="0 0 0 -1 0 0 0 0 -1 0 0 0 0 -1 0 0 0 0 1 0"
         id="feColorMatrix221" /><feColorMatrix
         id="feColorMatrix222"
         values="1 0 0 0 0 0 1 0 0 0 0 0 1 0 0 -0.21 -0.72 -0.07 2 0 "
         result="fbSourceGraphic"
         in="fbSourceGraphic" /><feColorMatrix
         result="fbSourceGraphicAlpha"
         in="fbSourceGraphic"
         values="0 0 0 -1 0 0 0 0 -1 0 0 0 0 -1 0 0 0 0 1 0"
         id="feColorMatrix223" /><feColorMatrix
         id="feColorMatrix224"
         values="1 0 0 0 0 0 1 0 0 0 0 0 1 0 0 -0.21 -0.72 -0.07 2 0 "
         result="fbSourceGraphic"
         in="fbSourceGraphic" /><feColorMatrix
         result="fbSourceGraphicAlpha"
         in="fbSourceGraphic"
         values="0 0 0 -1 0 0 0 0 -1 0 0 0 0 -1 0 0 0 0 1 0"
         id="feColorMatrix225" /><feColorMatrix
         id="feColorMatrix226"
         values="1 0 0 0 0 0 1 0 0 0 0 0 1 0 0 -0.21 -0.72 -0.07 2 0 "
         result="fbSourceGraphic"
         in="fbSourceGraphic" /><feColorMatrix
         result="fbSourceGraphicAlpha"
         in="fbSourceGraphic"
         values="0 0 0 -1 0 0 0 0 -1 0 0 0 0 -1 0 0 0 0 1 0"
         id="feColorMatrix227" /><feColorMatrix
         id="feColorMatrix228"
         values="1 0 0 0 0 0 1 0 0 0 0 0 1 0 0 -0.21 -0.72 -0.07 2 0 "
         result="fbSourceGraphic"
         in="fbSourceGraphic" /><feColorMatrix
         result="fbSourceGraphicAlpha"
         in="fbSourceGraphic"
         values="0 0 0 -1 0 0 0 0 -1 0 0 0 0 -1 0 0 0 0 1 0"
         id="feColorMatrix259" /><feColorMatrix
         id="feColorMatrix260"
         type="luminanceToAlpha"
         result="colormatrix1"
         in="fbSourceGraphic" /><feFlood
         id="feFlood260"
         flood-opacity="1"
         flood-color="rgb(255,255,255)"
         result="flood1" /><feComposite
         id="feComposite260"
         in2="colormatrix1"
         operator="out"
         result="composite1" /><feFlood
         id="feFlood261"
         flood-opacity="1"
         flood-color="rgb(255,255,255)"
         result="flood2" /><feComposite
         id="feComposite261"
         in2="colormatrix1"
         result="composite2"
         operator="in" /><feComposite
         id="feComposite262"
         in="composite2"
         in2="composite1"
         k2="1"
         k3="1"
         operator="arithmetic"
         result="composite3"
         k1="0"
         k4="0" /><feColorMatrix
         id="feColorMatrix262"
         in="composite3"
         type="matrix"
         values="2 -1 0 0 0 0 2 -1 0 0 -1 0 2 0 0 0 0 0 1 0 "
         result="colormatrix2" /><feComposite
         id="feComposite263"
         in="colormatrix2"
         in2="composite3"
         operator="arithmetic"
         k2="0"
         result="composite4"
         k1="0"
         k3="0"
         k4="0" /><feBlend
         id="feBlend263"
         in="composite4"
         in2="composite3"
         mode="normal"
         result="blend" /><feComposite
         id="feComposite264"
         in2="fbSourceGraphic"
         operator="in" /></filter></defs><g
     inkscape:label="Design Layer"
     inkscape:groupmode="layer"
     id="layer1"
     transform="translate(-319.37003,-483.77954)"><path
       style="fill:#000000;fill-opacity:1;stroke:#000000;stroke-width:1.13386;stroke-dasharray:none;stroke-opacity:1"
       d="m 336.14077,557.07793 132.28293,0.17863"
       id="path7"
       inkscape:label="UpperBorder" /><path
       style="fill:#000000;fill-opacity:1;stroke:#000000;stroke-width:1.13386;stroke-dasharray:none;stroke-opacity:1"
       d="m 334.43997,576.65538 136.06246,-0.17605"
       id="path8"
       inkscape:label="LowerBorder" /><ellipse
       style="fill:#000052;fill-opacity:0;stroke:#000052;stroke-width:17.166;stroke-dasharray:none;stroke-opacity:1"
       id="path1"
       cx="402.51962"
       cy="566.92914"
       inkscape:label="BackgroundCircle"
       rx="74.566612"
       ry="74.566628" /><text
       xml:space="preserve"
       style="font-size:9px;line-height:1.5;font-family:'Prestige12 BT';-inkscape-font-specification:'Prestige12 BT';text-align:end;letter-spacing:0.9px;writing-mode:lr-tb;direction:ltr;text-anchor:end;fill:#000000;fill-opacity:1;stroke:#000000;stroke-width:0.377953;stroke-dasharray:none;stroke-opacity:1"
       x="464.96161"
       y="570.64618"
       id="text9"
       inkscape:label="MiddleText"><tspan
         sodipodi:role="line"
         id="tspan9"
         x="466.16162"
         y="570.64618"
         style="letter-spacing:0.9px"><tspan
           style="font-size:10.6667px;letter-spacing:0.9px;word-spacing:-2px"
           id="tspan3"><tspan
   id="tspan12"
   style="letter-spacing:0px;word-spacing:-3.5px">A.J.</tspan><tspan
   style="letter-spacing:0.9px;word-spacing:-3.5px"
   id="tspan2"> <tspan
   style="letter-spacing:1px;word-spacing:-3.5px"
   id="tspan6">Stuart &amp; Co</tspan> </tspan>L</tspan><tspan
           style="font-size:6.66667px;letter-spacing:1.2px;baseline-shift:super"
           id="tspan10">td</tspan></tspan></text><path
       style="fill:#000000;fill-opacity:1;stroke:#000000;stroke-width:1.16186;stroke-dasharray:none;stroke-opacity:1"
       d="m 456.75587,569.41419 h 7.93701"
       id="path10"
       inkscape:label="Underscore" /><text
       xml:space="preserve"
       style="font-size:10px;line-height:1.5;font-family:'Prestige12 BT';-inkscape-font-specification:'Prestige12 BT';text-align:end;letter-spacing:1px;word-spacing:-1.5px;writing-mode:lr-tb;direction:ltr;text-anchor:end;fill:#000000;fill-opacity:1;stroke:#000000;stroke-width:0.32126;stroke-dasharray:none;stroke-opacity:1"
       x="429.46771"
       y="587.78906"
       id="text4"
       inkscape:label="GPOText"><tspan
         sodipodi:role="line"
         id="tspan4"
         x="430.46771"
         y="587.78906"
         style="font-size:10px;letter-spacing:1px;word-spacing:-1.5px;stroke-width:0.32126;stroke-dasharray:none">GPO 746F</tspan></text><path
       id="path4"
       style="display:none;fill-opacity:0;stroke:#17df00;stroke-width:1.0637"
       inkscape:label="WirelessGuideCircle"
       d="m 442.71458,590.77492 a 47.65991,47.659894 80.97145 0 0 -14.58581,-65.80415 47.65991,47.659894 80.97145 0 0 -65.80414,14.58577 47.65991,47.659894 80.97145 0 0 14.58581,65.80419 47.65991,47.659894 80.97145 0 0 65.80414,-14.58581 z" /><text
       xml:space="preserve"
       style="font-size:10.6667px;line-height:1.5;font-family:'Prestige12 BT';-inkscape-font-specification:'Prestige12 BT';text-align:end;letter-spacing:1px;word-spacing:2px;writing-mode:lr-tb;direction:ltr;text-anchor:end;display:inline;fill:#000000;fill-opacity:1;stroke:#000000;stroke-width:0.283465;stroke-dasharray:none;stroke-opacity:1"
       id="text5"
       inkscape:label="WirelessText"
       transform="translate(1.2712686e-6)"><textPath
         xlink:href="#path4"
         startOffset="100%"
         id="textPath5"
         style="font-size:10.6667px;letter-spacing:1px;word-spacing:2px;stroke-width:0.283465;stroke-dasharray:none"><tspan
   style="letter-spacing:3.25px;word-spacing:2px"
   id="tspan21">M</tspan><tspan
   id="tspan25"
   style="letter-spacing:0px;word-spacing:2px"><tspan
   style="letter-spacing:0.5px"
   id="tspan27">k</tspan>1</tspan><tspan
   style="font-style:normal;font-variant:normal;font-weight:normal;font-stretch:normal;font-size:65%;font-family:'Another Typewriter';-inkscape-font-specification:'Another Typewriter';word-spacing:2px;baseline-shift:super"
   id="tspan15">* </tspan>Wireless</textPath></text><path
       id="path4-8"
       style="display:none;fill-opacity:0;stroke:#17df00;stroke-width:1.37656"
       inkscape:label="TelephonyGuideCircle"
       d="m 459.77061,589.87233 a 61.677495,61.677553 70.308594 0 0 -34.30665,-80.19531 61.677495,61.677553 70.308594 0 0 -80.19535,34.30667 61.677495,61.677553 70.308594 0 0 34.30665,80.19529 61.677495,61.677553 70.308594 0 0 80.19535,-34.30665 z" /><text
       xml:space="preserve"
       style="font-size:10.6667px;line-height:1.5;font-family:'Prestige12 BT';-inkscape-font-specification:'Prestige12 BT';text-align:end;letter-spacing:1px;word-spacing:-0.75px;writing-mode:lr-tb;direction:ltr;text-anchor:end;display:inline;fill:#000000;fill-opacity:1;stroke:#000000;stroke-width:0.283465;stroke-dasharray:none;stroke-opacity:1"
       id="text6"
       inkscape:label="TelephonyText"
       transform="translate(1.2712686e-6,-1.5307733)"><textPath
         xlink:href="#path4-8"
         startOffset="100%"
         id="textPath6"
         style="font-size:10.6667px;letter-spacing:1px;word-spacing:-0.75px;stroke-width:0.283465;stroke-dasharray:none">Telephony Conversion</textPath></text><path
       id="path4-8-1"
       style="display:none;fill-opacity:0;stroke:#17df00;stroke-width:1.18872"
       inkscape:label="EmergencyGuideCircle"
       d="m 454.21394,554.10738 a 53.260436,53.26042 67.409962 0 1 -38.87373,64.51496 53.260436,53.26042 67.409962 0 1 -64.51494,-38.87375 53.260436,53.26042 67.409962 0 1 38.87374,-64.51492 53.260436,53.26042 67.409962 0 1 64.51493,38.87371 z" /><text
       xml:space="preserve"
       style="font-size:10.6667px;line-height:1.5;font-family:'Prestige12 BT';-inkscape-font-specification:'Prestige12 BT';text-align:end;letter-spacing:1px;word-spacing:-2.5px;writing-mode:lr-tb;direction:ltr;text-anchor:end;fill:#ba1000;fill-opacity:1;stroke:#ba1000;stroke-width:0.283465;stroke-dasharray:none;stroke-opacity:1"
       id="text8"
       inkscape:label="EmergencyText"
       transform="translate(1.2712686e-6)"><textPath
         xlink:href="#path4-8-1"
         startOffset="100%"
         id="textPath8"
         style="font-size:10.6667px;letter-spacing:1px;word-spacing:-2.5px;display:inline;fill:#ba1000;fill-opacity:1;stroke:#ba1000;stroke-width:0.283465;stroke-dasharray:none;stroke-opacity:1"
         sodipodi:insensitive="true">IN CASE OF EMERGENCY</textPath></text><g
       id="g1"
       transform="translate(-7.7939865,-4.3529673)"
       style="fill:#ba1000;fill-opacity:1;stroke:#ba1000;stroke-opacity:1"
       inkscape:label="999Text"><path
         d="m 398.39603,543.42955 v -0.0107 q 0.0213,0 0.0213,-0.0427 0.0107,-0.0107 0.0107,-0.032 0,-0.0107 0,-0.0107 0,-0.032 -0.0107,-0.0427 -0.0213,-0.0747 -0.0853,-0.13866 -0.064,-0.0533 -0.128,-0.064 -0.032,-0.0107 -0.0533,-0.0107 -0.032,0 -0.096,0.0213 -0.0533,0.032 -0.10667,0.0747 -0.0533,0.0427 -0.0853,0.096 -0.128,0.13867 -0.26667,0.39467 -0.064,0.10667 -0.11733,0.224 -0.064,0.128 -0.11734,0.256 -0.13867,0.33067 -0.18133,0.58667 -0.0213,0.0853 -0.0213,0.16 0,0.0853 0,0.16 0,0.39467 0.17067,0.64 0.17067,0.256 0.37334,0.352 0.128,0.0533 0.23466,0.0533 0.064,0 0.16,-0.0213 0.096,-0.0107 0.192,-0.0533 0.18134,-0.0747 0.33067,-0.224 0.13867,-0.14934 0.13867,-0.40534 0,-0.032 -0.0107,-0.0747 -0.0107,-0.0427 -0.0213,-0.0853 0,0 0,-0.0107 0,-0.0107 -0.0107,-0.0107 0,-0.032 -0.0107,-0.0533 -0.0107,-0.0213 -0.0107,-0.0427 -0.0427,-0.17067 -0.13867,-0.256 -0.096,-0.0853 -0.20267,-0.11733 -0.032,0 -0.0533,-0.0107 -0.032,0 -0.0533,0 -0.0533,0 -0.0853,0.0107 h -0.0533 q -0.032,0 -0.064,0.0107 -0.0427,0.0213 -0.0533,0 -0.0427,-0.14933 -0.0747,-0.17067 -0.0427,-0.0213 -0.064,0 -0.032,0.0213 -0.0427,0.0427 -0.0213,0.0213 -0.0213,-0.0427 0,-0.11733 0.0853,-0.32 0.0853,-0.192 0.224,-0.416 0.064,-0.10666 0.14934,-0.224 0.0747,-0.10667 0.14933,-0.192 z m -3.33335,0 v -0.0107 q 0.0213,0 0.0213,-0.0427 0.0107,-0.0107 0.0107,-0.032 0,-0.0107 0,-0.0107 0,-0.032 -0.0107,-0.0427 -0.0213,-0.0747 -0.0853,-0.13866 -0.064,-0.0533 -0.128,-0.064 -0.032,-0.0107 -0.0533,-0.0107 -0.032,0 -0.096,0.0213 -0.0533,0.032 -0.10667,0.0747 -0.0533,0.0427 -0.0853,0.096 -0.128,0.13867 -0.26667,0.39467 -0.064,0.10667 -0.11733,0.224 -0.064,0.128 -0.11734,0.256 -0.13867,0.33067 -0.18133,0.58667 -0.0213,0.0853 -0.0213,0.16 0,0.0853 0,0.16 0,0.39467 0.17067,0.64 0.17067,0.256 0.37334,0.352 0.128,0.0533 0.23466,0.0533 0.064,0 0.16,-0.0213 0.096,-0.0107 0.192,-0.0533 0.18134,-0.0747 0.33067,-0.224 0.13867,-0.14934 0.13867,-0.40534 0,-0.032 -0.0107,-0.0747 -0.0107,-0.0427 -0.0213,-0.0853 0,0 0,-0.0107 0,-0.0107 -0.0107,-0.0107 0,-0.032 -0.0107,-0.0533 -0.0107,-0.0213 -0.0107,-0.0427 -0.0427,-0.17067 -0.13867,-0.256 -0.096,-0.0853 -0.20267,-0.11733 -0.032,0 -0.0533,-0.0107 -0.032,0 -0.0533,0 -0.0533,0 -0.0853,0.0107 h -0.0533 q -0.032,0 -0.064,0.0107 -0.0427,0.0213 -0.0533,0 -0.0427,-0.14933 -0.0747,-0.17067 -0.0427,-0.0213 -0.064,0 -0.032,0.0213 -0.0427,0.0427 -0.0213,0.0213 -0.0213,-0.0427 0,-0.11733 0.0853,-0.32 0.0853,-0.192 0.224,-0.416 0.064,-0.10666 0.14934,-0.224 0.0747,-0.10667 0.14933,-0.192 z"
         id="text10-8"
         style="font-size:10.6667px;line-height:1.2;font-family:'Another Typewriter';-inkscape-font-specification:'Another Typewriter';text-align:center;letter-spacing:-2px;word-spacing:0px;text-anchor:middle;fill:#ba1000;stroke:#ba1000;stroke-width:0.283465"
         inkscape:label="LeftQuotation"
         aria-label="''" /><text
         xml:space="preserve"
         style="font-size:10.6667px;line-height:1.2;font-family:'Another Typewriter';-inkscape-font-specification:'Another Typewriter';text-align:center;letter-spacing:-2px;word-spacing:0px;writing-mode:lr-tb;direction:ltr;text-anchor:middle;fill:#ba1000;stroke:#ba1000;stroke-width:0.283465;stroke-dasharray:none"
         x="424.87927"
         y="550.55475"
         id="text10"
         inkscape:label="RightQuotation"><tspan
           sodipodi:role="line"
           id="tspan7"
           x="423.87927"
           y="550.55475"
           style="font-size:10.6667px;letter-spacing:-2px;word-spacing:0px;stroke-width:0.283465;stroke-dasharray:none">''</tspan></text><text
         xml:space="preserve"
         style="font-size:10px;line-height:1.2;font-family:'Prestige12 BT';-inkscape-font-specification:'Prestige12 BT';text-align:center;letter-spacing:0.25px;writing-mode:lr-tb;direction:ltr;text-anchor:middle;fill:#ba1000;fill-opacity:1;stroke:#ba1000;stroke-width:0.264567;stroke-dasharray:none;stroke-opacity:1"
         x="410.49789"
         y="540.61664"
         id="text12"
         inkscape:label="EmergencyNum"><tspan
           sodipodi:role="line"
           x="410.49789"
           y="540.61664"
           id="tspan19"
           style="font-size:10px;line-height:1.2;letter-spacing:1px;fill:#ba1000;fill-opacity:1;stroke:#ba1000;stroke-width:0.264567;stroke-dasharray:none;stroke-opacity:1" /><tspan
           sodipodi:role="line"
           x="410.49789"
           y="553.18982"
           id="tspan22"
           style="font-size:10.6667px;line-height:1.2;letter-spacing:0.5px;fill:#ba1000;fill-opacity:1;stroke:#ba1000;stroke-width:0.264567;stroke-dasharray:none;stroke-opacity:1">999</tspan><tspan
           sodipodi:role="line"
           x="410.49789"
           y="565.41669"
           id="tspan20"
           style="font-size:10px;line-height:1.2;fill:#ba1000;fill-opacity:1;stroke:#ba1000;stroke-width:0.264567;stroke-dasharray:none;stroke-opacity:1" /><tspan
           sodipodi:role="line"
           x="410.49789"
           y="577.41669"
           id="tspan18"
           style="font-size:10px;line-height:1.2;fill:#ba1000;fill-opacity:1;stroke:#ba1000;stroke-width:0.264567;stroke-dasharray:none;stroke-opacity:1" /><tspan
           sodipodi:role="line"
           x="410.49789"
           y="589.41669"
           id="tspan13"
           style="font-size:10px;line-height:1.2;fill:#ba1000;fill-opacity:1;stroke:#ba1000;stroke-width:0.264567;stroke-dasharray:none;stroke-opacity:1" /></text><text
         xml:space="preserve"
         style="font-size:12px;line-height:1.2;font-family:'Prestige12 BT';-inkscape-font-specification:'Prestige12 BT';text-align:center;letter-spacing:0.25px;writing-mode:lr-tb;direction:ltr;text-anchor:middle;fill:#ba1000;fill-opacity:1;stroke:#ba1000;stroke-width:0.264567;stroke-dasharray:none;stroke-opacity:1"
         x="410.94611"
         y="539.01147"
         id="text12-2"
         inkscape:label="DIAL"><tspan
           sodipodi:role="line"
           x="410.94611"
           y="539.01147"
           id="tspan22-6"
           style="font-size:10.6667px;line-height:1.2;letter-spacing:1.1px;fill:#ba1000;fill-opacity:1;stroke:#ba1000;stroke-width:0.264567;stroke-dasharray:none;stroke-opacity:1">DIAL</tspan><tspan
           sodipodi:role="line"
           x="410.94611"
           y="553.4115"
           id="tspan20-8"
           style="font-size:12px;line-height:1.2;fill:#ba1000;fill-opacity:1;stroke:#ba1000;stroke-width:0.264567;stroke-dasharray:none;stroke-opacity:1" /><tspan
           sodipodi:role="line"
           x="410.94611"
           y="567.81146"
           id="tspan18-5"
           style="font-size:12px;line-height:1.2;fill:#ba1000;fill-opacity:1;stroke:#ba1000;stroke-width:0.264567;stroke-dasharray:none;stroke-opacity:1" /><tspan
           sodipodi:role="line"
           x="410.94611"
           y="582.21149"
           id="tspan13-7"
           style="font-size:12px;line-height:1.2;fill:#ba1000;fill-opacity:1;stroke:#ba1000;stroke-width:0.264567;stroke-dasharray:none;stroke-opacity:1" /></text></g></g></svg>
